# xmcd
#
# Track frame offsets:
# 150
# 10437
# 23120
# 33497
# 47687
# 61337
# 78330
# 96305
# 113205
# 128495
# 137495
# 148305
# 161705
# 176105
# 184180
# 203150
# 218925
#
# Disc length: 3194 seconds
#
#
# Revision: 0
# Processed by: cddbd v1.5.1PL0 Copyright (c) Steve Scherf et al.
# Submitted via: FreeRIP 2.80 
#
DISCID=f50c7811
DTITLE=toots thielemans - word hits auf der mundharmonika
DYEAR=1986
DGENRE=Easy Listening
TTITLE0=toots thielemans-sunflower
TTITLE1=toots thielemans-da doo ron ron
TTITLE2=toots thielemans-swanee river
TTITLE3=toots thielemans-if you leave me now
TTITLE4=toots thielemans-salut I artiste
TTITLE5=toots thielemans-feelings
TTITLE6=toots thielemans-nicolas et les femmes
TTITLE7=toots thielemans-baker street
TTITLE8=toots thielemans-san antonio rose
TTITLE9=toots thielemans-banks of ohio
TTITLE10=toots thielemans-yellow rose of texas
TTITLE11=toots thielemans-woman
TTITLE12=toots thielemans-yesterday
TTITLE13=toots thielemans-la dehirure
TTITLE14=toots thielemans-house of the rising sun
TTITLE15=toots thielemans-let it be
TTITLE16=toots thielemans-my way
EXTD=
EXTT0=
EXTT1=
EXTT2=
EXTT3=
EXTT4=
EXTT5=
EXTT6=
EXTT7=
EXTT8=
EXTT9=
EXTT10=
EXTT11=
EXTT12=
EXTT13=
EXTT14=
EXTT15=
EXTT16=
PLAYORDER=
